<?xml version="1.0" encoding="UTF-8"?>
<mxfile host="app.diagrams.net" agent="Mozilla/5.0 (Windows NT 10.0; Win64; x64) AppleWebKit/537.36 (KHTML, like Gecko) Chrome/137.0.0.0 Safari/537.36" version="27.1.6">
  <diagram id="C5RBs43oDa-KdzZeNtuy" name="Page-1">
    <mxGraphModel dx="1303" dy="701" grid="1" gridSize="10" guides="1" tooltips="1" connect="1" arrows="1" fold="1" page="1" pageScale="1" pageWidth="827" pageHeight="1169" math="0" shadow="0">
      <root>
        <mxCell id="WIyWlLk6GJQsqaUBKTNV-0" />
        <mxCell id="WIyWlLk6GJQsqaUBKTNV-1" parent="WIyWlLk6GJQsqaUBKTNV-0" />
        <mxCell id="jhreR3iAYTI3vpnRuMNa-0" value="Mensalista" style="swimlane;fontStyle=0;childLayout=stackLayout;horizontal=1;startSize=26;fillColor=none;horizontalStack=0;resizeParent=1;resizeParentMax=0;resizeLast=0;collapsible=1;marginBottom=0;whiteSpace=wrap;html=1;" vertex="1" parent="WIyWlLk6GJQsqaUBKTNV-1">
          <mxGeometry x="100" y="130" width="140" height="208" as="geometry">
            <mxRectangle x="100" y="130" width="100" height="30" as="alternateBounds" />
          </mxGeometry>
        </mxCell>
        <mxCell id="jhreR3iAYTI3vpnRuMNa-1" value="- Nome: String" style="text;strokeColor=none;fillColor=none;align=left;verticalAlign=top;spacingLeft=4;spacingRight=4;overflow=hidden;rotatable=0;points=[[0,0.5],[1,0.5]];portConstraint=eastwest;whiteSpace=wrap;html=1;" vertex="1" parent="jhreR3iAYTI3vpnRuMNa-0">
          <mxGeometry y="26" width="140" height="26" as="geometry" />
        </mxCell>
        <mxCell id="jhreR3iAYTI3vpnRuMNa-2" value="- CPF: String" style="text;strokeColor=none;fillColor=none;align=left;verticalAlign=top;spacingLeft=4;spacingRight=4;overflow=hidden;rotatable=0;points=[[0,0.5],[1,0.5]];portConstraint=eastwest;whiteSpace=wrap;html=1;" vertex="1" parent="jhreR3iAYTI3vpnRuMNa-0">
          <mxGeometry y="52" width="140" height="26" as="geometry" />
        </mxCell>
        <mxCell id="jhreR3iAYTI3vpnRuMNa-3" value="- Conta: double" style="text;strokeColor=none;fillColor=none;align=left;verticalAlign=top;spacingLeft=4;spacingRight=4;overflow=hidden;rotatable=0;points=[[0,0.5],[1,0.5]];portConstraint=eastwest;whiteSpace=wrap;html=1;" vertex="1" parent="jhreR3iAYTI3vpnRuMNa-0">
          <mxGeometry y="78" width="140" height="26" as="geometry" />
        </mxCell>
        <mxCell id="jhreR3iAYTI3vpnRuMNa-4" value="- Rua: String" style="text;strokeColor=none;fillColor=none;align=left;verticalAlign=top;spacingLeft=4;spacingRight=4;overflow=hidden;rotatable=0;points=[[0,0.5],[1,0.5]];portConstraint=eastwest;whiteSpace=wrap;html=1;" vertex="1" parent="jhreR3iAYTI3vpnRuMNa-0">
          <mxGeometry y="104" width="140" height="26" as="geometry" />
        </mxCell>
        <mxCell id="jhreR3iAYTI3vpnRuMNa-5" value="- Avenida: String" style="text;strokeColor=none;fillColor=none;align=left;verticalAlign=top;spacingLeft=4;spacingRight=4;overflow=hidden;rotatable=0;points=[[0,0.5],[1,0.5]];portConstraint=eastwest;whiteSpace=wrap;html=1;" vertex="1" parent="jhreR3iAYTI3vpnRuMNa-0">
          <mxGeometry y="130" width="140" height="26" as="geometry" />
        </mxCell>
        <mxCell id="jhreR3iAYTI3vpnRuMNa-6" value="- Numero: String" style="text;strokeColor=none;fillColor=none;align=left;verticalAlign=top;spacingLeft=4;spacingRight=4;overflow=hidden;rotatable=0;points=[[0,0.5],[1,0.5]];portConstraint=eastwest;whiteSpace=wrap;html=1;" vertex="1" parent="jhreR3iAYTI3vpnRuMNa-0">
          <mxGeometry y="156" width="140" height="26" as="geometry" />
        </mxCell>
        <mxCell id="jhreR3iAYTI3vpnRuMNa-7" value="- Bairro: Bairro" style="text;strokeColor=none;fillColor=none;align=left;verticalAlign=top;spacingLeft=4;spacingRight=4;overflow=hidden;rotatable=0;points=[[0,0.5],[1,0.5]];portConstraint=eastwest;whiteSpace=wrap;html=1;" vertex="1" parent="jhreR3iAYTI3vpnRuMNa-0">
          <mxGeometry y="182" width="140" height="26" as="geometry" />
        </mxCell>
        <mxCell id="jhreR3iAYTI3vpnRuMNa-8" value="Bairro" style="swimlane;fontStyle=0;childLayout=stackLayout;horizontal=1;startSize=26;fillColor=none;horizontalStack=0;resizeParent=1;resizeParentMax=0;resizeLast=0;collapsible=1;marginBottom=0;whiteSpace=wrap;html=1;" vertex="1" parent="WIyWlLk6GJQsqaUBKTNV-1">
          <mxGeometry x="263" y="130" width="150" height="80" as="geometry">
            <mxRectangle x="100" y="130" width="100" height="30" as="alternateBounds" />
          </mxGeometry>
        </mxCell>
        <mxCell id="jhreR3iAYTI3vpnRuMNa-9" value="- Nome: String" style="text;strokeColor=none;fillColor=none;align=left;verticalAlign=top;spacingLeft=4;spacingRight=4;overflow=hidden;rotatable=0;points=[[0,0.5],[1,0.5]];portConstraint=eastwest;whiteSpace=wrap;html=1;" vertex="1" parent="jhreR3iAYTI3vpnRuMNa-8">
          <mxGeometry y="26" width="150" height="26" as="geometry" />
        </mxCell>
        <mxCell id="jhreR3iAYTI3vpnRuMNa-10" value="- Valor de Entrega: double" style="text;strokeColor=none;fillColor=none;align=left;verticalAlign=top;spacingLeft=4;spacingRight=4;overflow=hidden;rotatable=0;points=[[0,0.5],[1,0.5]];portConstraint=eastwest;whiteSpace=wrap;html=1;" vertex="1" parent="jhreR3iAYTI3vpnRuMNa-8">
          <mxGeometry y="52" width="150" height="28" as="geometry" />
        </mxCell>
        <mxCell id="jhreR3iAYTI3vpnRuMNa-16" value="Produto" style="swimlane;fontStyle=0;childLayout=stackLayout;horizontal=1;startSize=26;fillColor=none;horizontalStack=0;resizeParent=1;resizeParentMax=0;resizeLast=0;collapsible=1;marginBottom=0;whiteSpace=wrap;html=1;" vertex="1" parent="WIyWlLk6GJQsqaUBKTNV-1">
          <mxGeometry x="263.5" y="230" width="150" height="80" as="geometry">
            <mxRectangle x="100" y="130" width="100" height="30" as="alternateBounds" />
          </mxGeometry>
        </mxCell>
        <mxCell id="jhreR3iAYTI3vpnRuMNa-17" value="- Descrição: String" style="text;strokeColor=none;fillColor=none;align=left;verticalAlign=top;spacingLeft=4;spacingRight=4;overflow=hidden;rotatable=0;points=[[0,0.5],[1,0.5]];portConstraint=eastwest;whiteSpace=wrap;html=1;" vertex="1" parent="jhreR3iAYTI3vpnRuMNa-16">
          <mxGeometry y="26" width="150" height="26" as="geometry" />
        </mxCell>
        <mxCell id="jhreR3iAYTI3vpnRuMNa-18" value="- Valor: double" style="text;strokeColor=none;fillColor=none;align=left;verticalAlign=top;spacingLeft=4;spacingRight=4;overflow=hidden;rotatable=0;points=[[0,0.5],[1,0.5]];portConstraint=eastwest;whiteSpace=wrap;html=1;" vertex="1" parent="jhreR3iAYTI3vpnRuMNa-16">
          <mxGeometry y="52" width="150" height="28" as="geometry" />
        </mxCell>
        <mxCell id="jhreR3iAYTI3vpnRuMNa-19" value="Motoboy" style="swimlane;fontStyle=0;childLayout=stackLayout;horizontal=1;startSize=26;fillColor=none;horizontalStack=0;resizeParent=1;resizeParentMax=0;resizeLast=0;collapsible=1;marginBottom=0;whiteSpace=wrap;html=1;" vertex="1" parent="WIyWlLk6GJQsqaUBKTNV-1">
          <mxGeometry x="100" y="370" width="150" height="80" as="geometry">
            <mxRectangle x="100" y="130" width="100" height="30" as="alternateBounds" />
          </mxGeometry>
        </mxCell>
        <mxCell id="jhreR3iAYTI3vpnRuMNa-20" value="- Nome: String" style="text;strokeColor=none;fillColor=none;align=left;verticalAlign=top;spacingLeft=4;spacingRight=4;overflow=hidden;rotatable=0;points=[[0,0.5],[1,0.5]];portConstraint=eastwest;whiteSpace=wrap;html=1;" vertex="1" parent="jhreR3iAYTI3vpnRuMNa-19">
          <mxGeometry y="26" width="150" height="26" as="geometry" />
        </mxCell>
        <mxCell id="jhreR3iAYTI3vpnRuMNa-21" value="- Valor da diária: double" style="text;strokeColor=none;fillColor=none;align=left;verticalAlign=top;spacingLeft=4;spacingRight=4;overflow=hidden;rotatable=0;points=[[0,0.5],[1,0.5]];portConstraint=eastwest;whiteSpace=wrap;html=1;" vertex="1" parent="jhreR3iAYTI3vpnRuMNa-19">
          <mxGeometry y="52" width="150" height="28" as="geometry" />
        </mxCell>
        <mxCell id="jhreR3iAYTI3vpnRuMNa-22" value="Pedido" style="swimlane;fontStyle=0;childLayout=stackLayout;horizontal=1;startSize=26;fillColor=none;horizontalStack=0;resizeParent=1;resizeParentMax=0;resizeLast=0;collapsible=1;marginBottom=0;whiteSpace=wrap;html=1;" vertex="1" parent="WIyWlLk6GJQsqaUBKTNV-1">
          <mxGeometry x="520" y="130" width="160" height="442" as="geometry">
            <mxRectangle x="100" y="130" width="100" height="30" as="alternateBounds" />
          </mxGeometry>
        </mxCell>
        <mxCell id="jhreR3iAYTI3vpnRuMNa-23" value="- Nome do Cliente: String" style="text;strokeColor=none;fillColor=none;align=left;verticalAlign=top;spacingLeft=4;spacingRight=4;overflow=hidden;rotatable=0;points=[[0,0.5],[1,0.5]];portConstraint=eastwest;whiteSpace=wrap;html=1;" vertex="1" parent="jhreR3iAYTI3vpnRuMNa-22">
          <mxGeometry y="26" width="160" height="26" as="geometry" />
        </mxCell>
        <mxCell id="jhreR3iAYTI3vpnRuMNa-24" value="- Mensalista: Mensalista" style="text;strokeColor=none;fillColor=none;align=left;verticalAlign=top;spacingLeft=4;spacingRight=4;overflow=hidden;rotatable=0;points=[[0,0.5],[1,0.5]];portConstraint=eastwest;whiteSpace=wrap;html=1;" vertex="1" parent="jhreR3iAYTI3vpnRuMNa-22">
          <mxGeometry y="52" width="160" height="26" as="geometry" />
        </mxCell>
        <mxCell id="jhreR3iAYTI3vpnRuMNa-25" value="- Marmitas: List&amp;lt;Marmita&amp;gt;" style="text;strokeColor=none;fillColor=none;align=left;verticalAlign=top;spacingLeft=4;spacingRight=4;overflow=hidden;rotatable=0;points=[[0,0.5],[1,0.5]];portConstraint=eastwest;whiteSpace=wrap;html=1;" vertex="1" parent="jhreR3iAYTI3vpnRuMNa-22">
          <mxGeometry y="78" width="160" height="26" as="geometry" />
        </mxCell>
        <mxCell id="jhreR3iAYTI3vpnRuMNa-26" value="- Produtos: List&amp;lt;Produto&amp;gt;" style="text;strokeColor=none;fillColor=none;align=left;verticalAlign=top;spacingLeft=4;spacingRight=4;overflow=hidden;rotatable=0;points=[[0,0.5],[1,0.5]];portConstraint=eastwest;whiteSpace=wrap;html=1;" vertex="1" parent="jhreR3iAYTI3vpnRuMNa-22">
          <mxGeometry y="104" width="160" height="26" as="geometry" />
        </mxCell>
        <mxCell id="jhreR3iAYTI3vpnRuMNa-27" value="- Tipo de pagamento: String" style="text;strokeColor=none;fillColor=none;align=left;verticalAlign=top;spacingLeft=4;spacingRight=4;overflow=hidden;rotatable=0;points=[[0,0.5],[1,0.5]];portConstraint=eastwest;whiteSpace=wrap;html=1;" vertex="1" parent="jhreR3iAYTI3vpnRuMNa-22">
          <mxGeometry y="130" width="160" height="26" as="geometry" />
        </mxCell>
        <mxCell id="jhreR3iAYTI3vpnRuMNa-28" value="- Tipo do pedido: String" style="text;strokeColor=none;fillColor=none;align=left;verticalAlign=top;spacingLeft=4;spacingRight=4;overflow=hidden;rotatable=0;points=[[0,0.5],[1,0.5]];portConstraint=eastwest;whiteSpace=wrap;html=1;" vertex="1" parent="jhreR3iAYTI3vpnRuMNa-22">
          <mxGeometry y="156" width="160" height="26" as="geometry" />
        </mxCell>
        <mxCell id="jhreR3iAYTI3vpnRuMNa-29" value="- Observações: String" style="text;strokeColor=none;fillColor=none;align=left;verticalAlign=top;spacingLeft=4;spacingRight=4;overflow=hidden;rotatable=0;points=[[0,0.5],[1,0.5]];portConstraint=eastwest;whiteSpace=wrap;html=1;" vertex="1" parent="jhreR3iAYTI3vpnRuMNa-22">
          <mxGeometry y="182" width="160" height="26" as="geometry" />
        </mxCell>
        <mxCell id="jhreR3iAYTI3vpnRuMNa-30" value="- Valor Total: double" style="text;strokeColor=none;fillColor=none;align=left;verticalAlign=top;spacingLeft=4;spacingRight=4;overflow=hidden;rotatable=0;points=[[0,0.5],[1,0.5]];portConstraint=eastwest;whiteSpace=wrap;html=1;" vertex="1" parent="jhreR3iAYTI3vpnRuMNa-22">
          <mxGeometry y="208" width="160" height="26" as="geometry" />
        </mxCell>
        <mxCell id="jhreR3iAYTI3vpnRuMNa-31" value="- Valor de Entrega: double" style="text;strokeColor=none;fillColor=none;align=left;verticalAlign=top;spacingLeft=4;spacingRight=4;overflow=hidden;rotatable=0;points=[[0,0.5],[1,0.5]];portConstraint=eastwest;whiteSpace=wrap;html=1;" vertex="1" parent="jhreR3iAYTI3vpnRuMNa-22">
          <mxGeometry y="234" width="160" height="26" as="geometry" />
        </mxCell>
        <mxCell id="jhreR3iAYTI3vpnRuMNa-35" value="- Rua: String" style="text;strokeColor=none;fillColor=none;align=left;verticalAlign=top;spacingLeft=4;spacingRight=4;overflow=hidden;rotatable=0;points=[[0,0.5],[1,0.5]];portConstraint=eastwest;whiteSpace=wrap;html=1;" vertex="1" parent="jhreR3iAYTI3vpnRuMNa-22">
          <mxGeometry y="260" width="160" height="26" as="geometry" />
        </mxCell>
        <mxCell id="jhreR3iAYTI3vpnRuMNa-36" value="- Avenida: String" style="text;strokeColor=none;fillColor=none;align=left;verticalAlign=top;spacingLeft=4;spacingRight=4;overflow=hidden;rotatable=0;points=[[0,0.5],[1,0.5]];portConstraint=eastwest;whiteSpace=wrap;html=1;" vertex="1" parent="jhreR3iAYTI3vpnRuMNa-22">
          <mxGeometry y="286" width="160" height="26" as="geometry" />
        </mxCell>
        <mxCell id="jhreR3iAYTI3vpnRuMNa-37" value="- Numero: String" style="text;strokeColor=none;fillColor=none;align=left;verticalAlign=top;spacingLeft=4;spacingRight=4;overflow=hidden;rotatable=0;points=[[0,0.5],[1,0.5]];portConstraint=eastwest;whiteSpace=wrap;html=1;" vertex="1" parent="jhreR3iAYTI3vpnRuMNa-22">
          <mxGeometry y="312" width="160" height="26" as="geometry" />
        </mxCell>
        <mxCell id="jhreR3iAYTI3vpnRuMNa-38" value="- Bairro: Bairro" style="text;strokeColor=none;fillColor=none;align=left;verticalAlign=top;spacingLeft=4;spacingRight=4;overflow=hidden;rotatable=0;points=[[0,0.5],[1,0.5]];portConstraint=eastwest;whiteSpace=wrap;html=1;" vertex="1" parent="jhreR3iAYTI3vpnRuMNa-22">
          <mxGeometry y="338" width="160" height="26" as="geometry" />
        </mxCell>
        <mxCell id="jhreR3iAYTI3vpnRuMNa-41" value="- Motoboy: Motoboy" style="text;strokeColor=none;fillColor=none;align=left;verticalAlign=top;spacingLeft=4;spacingRight=4;overflow=hidden;rotatable=0;points=[[0,0.5],[1,0.5]];portConstraint=eastwest;whiteSpace=wrap;html=1;" vertex="1" parent="jhreR3iAYTI3vpnRuMNa-22">
          <mxGeometry y="364" width="160" height="26" as="geometry" />
        </mxCell>
        <mxCell id="jhreR3iAYTI3vpnRuMNa-42" value="- Horário: Hora" style="text;strokeColor=none;fillColor=none;align=left;verticalAlign=top;spacingLeft=4;spacingRight=4;overflow=hidden;rotatable=0;points=[[0,0.5],[1,0.5]];portConstraint=eastwest;whiteSpace=wrap;html=1;" vertex="1" parent="jhreR3iAYTI3vpnRuMNa-22">
          <mxGeometry y="390" width="160" height="26" as="geometry" />
        </mxCell>
        <mxCell id="jhreR3iAYTI3vpnRuMNa-43" value="- Data: Data" style="text;strokeColor=none;fillColor=none;align=left;verticalAlign=top;spacingLeft=4;spacingRight=4;overflow=hidden;rotatable=0;points=[[0,0.5],[1,0.5]];portConstraint=eastwest;whiteSpace=wrap;html=1;" vertex="1" parent="jhreR3iAYTI3vpnRuMNa-22">
          <mxGeometry y="416" width="160" height="26" as="geometry" />
        </mxCell>
        <mxCell id="jhreR3iAYTI3vpnRuMNa-44" value="Marmita" style="swimlane;fontStyle=0;childLayout=stackLayout;horizontal=1;startSize=26;fillColor=none;horizontalStack=0;resizeParent=1;resizeParentMax=0;resizeLast=0;collapsible=1;marginBottom=0;whiteSpace=wrap;html=1;" vertex="1" parent="WIyWlLk6GJQsqaUBKTNV-1">
          <mxGeometry x="273" y="340" width="200" height="156" as="geometry">
            <mxRectangle x="100" y="130" width="100" height="30" as="alternateBounds" />
          </mxGeometry>
        </mxCell>
        <mxCell id="jhreR3iAYTI3vpnRuMNa-45" value="- Pedido de referência: Pedido" style="text;strokeColor=none;fillColor=none;align=left;verticalAlign=top;spacingLeft=4;spacingRight=4;overflow=hidden;rotatable=0;points=[[0,0.5],[1,0.5]];portConstraint=eastwest;whiteSpace=wrap;html=1;" vertex="1" parent="jhreR3iAYTI3vpnRuMNa-44">
          <mxGeometry y="26" width="200" height="26" as="geometry" />
        </mxCell>
        <mxCell id="jhreR3iAYTI3vpnRuMNa-46" value="- Tipo de marmita: Tipo de marmita" style="text;strokeColor=none;fillColor=none;align=left;verticalAlign=top;spacingLeft=4;spacingRight=4;overflow=hidden;rotatable=0;points=[[0,0.5],[1,0.5]];portConstraint=eastwest;whiteSpace=wrap;html=1;" vertex="1" parent="jhreR3iAYTI3vpnRuMNa-44">
          <mxGeometry y="52" width="200" height="26" as="geometry" />
        </mxCell>
        <mxCell id="jhreR3iAYTI3vpnRuMNa-47" value="- Misturas: List&amp;lt;String&amp;gt;" style="text;strokeColor=none;fillColor=none;align=left;verticalAlign=top;spacingLeft=4;spacingRight=4;overflow=hidden;rotatable=0;points=[[0,0.5],[1,0.5]];portConstraint=eastwest;whiteSpace=wrap;html=1;" vertex="1" parent="jhreR3iAYTI3vpnRuMNa-44">
          <mxGeometry y="78" width="200" height="26" as="geometry" />
        </mxCell>
        <mxCell id="jhreR3iAYTI3vpnRuMNa-48" value="- Guarnições: List&amp;lt;String&amp;gt;" style="text;strokeColor=none;fillColor=none;align=left;verticalAlign=top;spacingLeft=4;spacingRight=4;overflow=hidden;rotatable=0;points=[[0,0.5],[1,0.5]];portConstraint=eastwest;whiteSpace=wrap;html=1;" vertex="1" parent="jhreR3iAYTI3vpnRuMNa-44">
          <mxGeometry y="104" width="200" height="26" as="geometry" />
        </mxCell>
        <mxCell id="jhreR3iAYTI3vpnRuMNa-49" value="- Salada: String" style="text;strokeColor=none;fillColor=none;align=left;verticalAlign=top;spacingLeft=4;spacingRight=4;overflow=hidden;rotatable=0;points=[[0,0.5],[1,0.5]];portConstraint=eastwest;whiteSpace=wrap;html=1;" vertex="1" parent="jhreR3iAYTI3vpnRuMNa-44">
          <mxGeometry y="130" width="200" height="26" as="geometry" />
        </mxCell>
        <mxCell id="jhreR3iAYTI3vpnRuMNa-52" value="Tipo de Marmita" style="swimlane;fontStyle=0;childLayout=stackLayout;horizontal=1;startSize=26;fillColor=none;horizontalStack=0;resizeParent=1;resizeParentMax=0;resizeLast=0;collapsible=1;marginBottom=0;whiteSpace=wrap;html=1;" vertex="1" parent="WIyWlLk6GJQsqaUBKTNV-1">
          <mxGeometry x="100" y="510" width="150" height="130" as="geometry">
            <mxRectangle x="100" y="130" width="100" height="30" as="alternateBounds" />
          </mxGeometry>
        </mxCell>
        <mxCell id="jhreR3iAYTI3vpnRuMNa-53" value="- Tamanho: String" style="text;strokeColor=none;fillColor=none;align=left;verticalAlign=top;spacingLeft=4;spacingRight=4;overflow=hidden;rotatable=0;points=[[0,0.5],[1,0.5]];portConstraint=eastwest;whiteSpace=wrap;html=1;" vertex="1" parent="jhreR3iAYTI3vpnRuMNa-52">
          <mxGeometry y="26" width="150" height="26" as="geometry" />
        </mxCell>
        <mxCell id="jhreR3iAYTI3vpnRuMNa-54" value="- Máx de Misturas: int" style="text;strokeColor=none;fillColor=none;align=left;verticalAlign=top;spacingLeft=4;spacingRight=4;overflow=hidden;rotatable=0;points=[[0,0.5],[1,0.5]];portConstraint=eastwest;whiteSpace=wrap;html=1;" vertex="1" parent="jhreR3iAYTI3vpnRuMNa-52">
          <mxGeometry y="52" width="150" height="26" as="geometry" />
        </mxCell>
        <mxCell id="jhreR3iAYTI3vpnRuMNa-55" value="- Máx de Guarnições: int" style="text;strokeColor=none;fillColor=none;align=left;verticalAlign=top;spacingLeft=4;spacingRight=4;overflow=hidden;rotatable=0;points=[[0,0.5],[1,0.5]];portConstraint=eastwest;whiteSpace=wrap;html=1;" vertex="1" parent="jhreR3iAYTI3vpnRuMNa-52">
          <mxGeometry y="78" width="150" height="26" as="geometry" />
        </mxCell>
        <mxCell id="jhreR3iAYTI3vpnRuMNa-56" value="- Valor: double" style="text;strokeColor=none;fillColor=none;align=left;verticalAlign=top;spacingLeft=4;spacingRight=4;overflow=hidden;rotatable=0;points=[[0,0.5],[1,0.5]];portConstraint=eastwest;whiteSpace=wrap;html=1;" vertex="1" parent="jhreR3iAYTI3vpnRuMNa-52">
          <mxGeometry y="104" width="150" height="26" as="geometry" />
        </mxCell>
      </root>
    </mxGraphModel>
  </diagram>
</mxfile>
